<svg version="1.1" id="Layer_1" xmlns="http://www.w3.org/2000/svg" xmlns:xlink="http://www.w3.org/1999/xlink" x="0px" y="0px"
	 width="100%" viewBox="0 0 1024 1024" enable-background="new 0 0 1024 1024" xml:space="preserve">
<path fill="#000000" opacity="1.000000" stroke="none" 
	d="
M596.593628,586.713684 
	C568.521912,598.908936 539.691895,605.284363 509.321777,604.289795 
	C489.626617,603.644714 470.633484,599.465637 452.364227,592.538025 
	C429.809998,583.985535 408.913605,572.297791 390.464142,556.507324 
	C364.095856,533.939270 345.978485,505.888184 334.738922,473.219543 
	C325.597778,446.650177 322.606018,419.484253 326.548004,391.576843 
	C333.712250,340.857758 356.545380,298.707153 396.383698,266.481506 
	C422.615692,245.262192 452.893555,232.095184 486.342468,226.866913 
	C530.846558,219.910660 572.943115,227.468430 612.200500,249.441757 
	C642.027832,266.136871 665.806885,289.150482 682.869263,319.077667 
	C693.019592,336.881317 701.158691,355.423492 705.347656,375.436432 
	C712.676453,410.450409 710.553101,444.907867 697.559204,478.474335 
	C691.223938,494.839874 682.529846,509.806244 672.533630,524.253479 
	C658.378479,544.711304 641.005737,561.481567 620.012756,574.654663 
	C612.653259,579.272705 604.836975,582.989807 596.593628,586.713684 
M476.769531,301.389374 
	C473.621399,301.678833 470.478821,302.075470 467.324188,302.239929 
	C449.929413,303.146698 436.301605,317.222931 436.376984,334.488953 
	C436.420563,344.478790 436.889862,354.466522 436.954956,364.456573 
	C437.096161,386.117310 437.105255,407.778931 437.159851,429.440186 
	C437.210236,449.435669 437.408722,469.432465 437.240051,489.426147 
	C437.118927,503.778687 450.619507,523.306091 470.028107,521.966858 
	C486.115662,520.856750 502.345306,521.965393 518.499390,521.572571 
	C524.019958,521.438416 527.345581,523.184753 530.288940,527.807495 
	C540.504822,543.852234 555.634033,551.373962 574.413025,551.654907 
	C607.396790,552.148438 633.956299,526.144653 634.714050,493.096161 
	C635.046814,478.583008 629.444214,466.587921 620.316589,455.812744 
	C616.011475,450.730530 612.192810,445.024170 605.551270,442.762390 
	C601.849731,441.501862 600.921265,439.190033 600.813965,435.656708 
	C600.424683,422.842346 599.436646,410.052734 599.672546,397.210846 
	C599.856140,387.217194 599.640381,377.215973 599.585083,367.218262 
	C599.560669,362.814941 597.960938,360.743805 592.927185,361.016754 
	C583.789246,361.512299 574.600891,361.425140 565.445312,361.166016 
	C552.498169,360.799591 546.668579,354.590668 546.664185,341.754669 
	C546.660278,330.257141 546.496643,318.756409 546.729797,307.263702 
	C546.821960,302.720886 545.344666,301.163086 540.707031,301.213837 
	C519.713562,301.443634 498.716675,301.356506 476.769531,301.389374 
M669.249939,332.215302 
	C666.083557,327.138672 662.825745,322.116241 659.775696,316.970642 
	C656.501587,311.447174 651.908875,307.772186 645.923767,305.400879 
	C642.156433,303.908234 639.427734,304.932312 637.957336,308.051422 
	C635.486755,313.292206 634.669556,318.983124 637.423462,324.412476 
	C639.227234,327.968719 640.856934,331.624268 642.758362,335.106018 
	C647.556274,343.891296 652.706299,352.435944 662.410522,356.937439 
	C665.961792,358.584808 669.477722,359.674835 672.726379,357.113739 
	C675.879333,354.627991 676.305786,350.900970 675.522400,347.083679 
	C674.471802,341.963776 672.055298,337.404205 669.249939,332.215302 
M568.821289,319.830872 
	C565.916565,317.454620 565.353394,319.488281 565.402100,321.822693 
	C565.526794,327.795502 565.830627,333.764862 566.093140,339.734283 
	C566.169067,341.460327 567.028442,342.608856 568.856140,342.617401 
	C576.083557,342.651184 583.311340,342.631256 591.799683,342.631256 
	C583.963196,334.124847 576.980713,326.877228 568.821289,319.830872 
M660.594482,413.756012 
	C661.200867,407.320740 657.474121,402.437866 651.859985,402.311859 
	C646.992676,402.202606 642.841248,406.738953 643.184509,411.891876 
	C643.502747,416.668365 646.957275,418.940643 650.856079,420.076752 
	C655.594849,421.457581 658.054565,417.860443 660.594482,413.756012 
M375.855438,408.237549 
	C374.245026,412.768280 376.035492,416.866608 380.748016,419.664276 
	C384.588440,421.944092 387.747162,420.657623 390.581207,417.852722 
	C393.566376,414.898254 393.823151,410.486542 391.333649,406.953400 
	C387.977234,402.189941 382.061035,402.468964 375.855438,408.237549 
z"/>
<path fill="#000000" opacity="1.000000" stroke="none" 
	d="
M490.840271,731.714783 
	C485.622162,730.347168 485.077606,726.212158 485.035187,722.477722 
	C484.772034,699.331848 484.760468,676.182861 484.711395,653.034790 
	C484.705109,650.061401 485.959412,647.324890 489.214050,647.553833 
	C502.321381,648.475952 515.519531,645.418518 528.534058,648.200256 
	C552.465637,653.315308 553.264404,674.767883 541.253967,687.381409 
	C540.818726,687.838562 540.437866,688.347473 539.707397,689.219116 
	C546.403076,692.564819 550.562744,697.624329 551.783508,704.886169 
	C552.205750,707.397583 552.541504,709.928162 551.489807,712.263611 
	C547.226562,721.730225 541.469727,730.139771 530.141113,730.950195 
	C517.222900,731.874268 504.218414,731.593811 490.840271,731.714783 
M502.408661,705.620483 
	C502.409546,706.616394 502.533844,707.630432 502.390381,708.605103 
	C501.686096,713.390625 503.667694,715.133911 508.473511,714.828918 
	C513.262085,714.525085 518.095886,715.023926 522.905151,714.930176 
	C528.774902,714.815735 532.572998,711.694397 532.686035,707.210449 
	C532.814209,702.126648 528.935486,698.573914 522.749634,698.373901 
	C518.106934,698.223877 513.431946,698.632874 508.814453,698.259644 
	C503.787109,697.853333 501.612091,699.644958 502.408661,705.620483 
M506.847473,681.668457 
	C511.823181,681.665955 516.800720,681.746460 521.774048,681.636963 
	C526.541199,681.532043 530.084961,678.576721 530.599426,674.520935 
	C531.169678,670.025757 528.608948,666.352051 523.686035,665.102905 
	C517.498169,663.532715 511.154388,664.364014 504.875153,664.258667 
	C503.865082,664.241699 502.701141,664.632812 502.586975,665.777344 
	C502.109985,670.557678 502.033569,675.367371 502.657471,680.129700 
	C502.870483,681.755676 504.635712,681.579712 506.847473,681.668457 
z"/>
<path fill="#000000" opacity="1.000000" stroke="none" 
	d="
M285.542603,666.578491 
	C301.140167,691.219604 285.942596,728.330933 254.930038,731.495483 
	C245.096863,732.498840 235.313522,732.137878 225.510086,732.168518 
	C220.337692,732.184692 217.755798,729.205627 217.700409,723.803162 
	C217.586029,712.646057 217.710571,701.486511 217.602570,690.329224 
	C217.494644,679.177124 217.109482,668.027100 217.061523,656.875183 
	C217.027893,649.049316 218.674393,647.436462 226.465317,647.666443 
	C236.432693,647.960571 246.432007,646.824463 256.370636,648.381104 
	C268.544250,650.287720 277.896454,656.726868 285.542603,666.578491 
M265.209381,673.317810 
	C257.062042,664.836121 246.495544,665.311829 235.467224,664.943909 
	C236.694580,681.764893 236.222687,698.109375 236.238007,714.570801 
	C240.995605,714.570801 245.347626,714.930969 249.619263,714.497986 
	C259.383209,713.508423 267.334534,709.639709 270.243561,699.300659 
	C272.822998,690.132935 271.844208,681.505066 265.209381,673.317810 
z"/>
<path fill="#000000" opacity="1.000000" stroke="none" 
	d="
M760.320068,666.001099 
	C760.333435,685.488220 760.208191,704.477417 760.443787,723.462158 
	C760.503296,728.257141 759.165771,730.791992 754.120728,730.560303 
	C753.798096,730.545410 753.470093,730.692200 753.141846,730.746887 
	C745.296021,732.056396 745.295959,732.055969 743.347656,724.530396 
	C741.934875,724.199524 741.175354,725.318054 740.473816,726.102661 
	C731.926453,735.661987 715.640564,732.774658 708.017700,726.587402 
	C689.402100,711.477600 692.657959,679.646912 713.947388,670.505371 
	C722.393921,666.878479 730.718994,666.844666 738.783997,671.730469 
	C739.741089,672.310303 740.626099,673.222900 741.795105,672.895264 
	C741.795105,666.707275 741.740173,660.581970 741.808533,654.458008 
	C741.900818,646.195923 743.143799,644.687073 749.557312,644.713623 
	C758.325867,644.749939 760.216675,646.470459 760.279724,654.508728 
	C760.308472,658.172913 760.304382,661.837280 760.320068,666.001099 
M731.006104,715.661377 
	C738.224487,713.779419 741.346741,710.034180 741.659973,702.722534 
	C741.766357,700.238708 741.767273,697.741150 741.643005,695.258484 
	C741.243652,687.283691 733.479065,681.807800 725.808838,684.029053 
	C718.071350,686.269836 713.282349,692.906738 714.481018,700.493408 
	C715.687622,708.130615 720.267395,716.827759 731.006104,715.661377 
z"/>
<path fill="#000000" opacity="1.000000" stroke="none" 
	d="
M670.743591,662.820007 
	C670.784668,658.351318 670.716309,654.349731 670.899841,650.359680 
	C671.077637,646.496521 672.754333,644.065613 677.160645,644.643127 
	C678.470703,644.814880 679.822937,644.646179 681.155090,644.671082 
	C687.927795,644.797546 689.307251,646.168518 689.311890,652.968506 
	C689.328003,676.789001 689.227783,700.610229 689.401794,724.429443 
	C689.432068,728.578613 687.820740,730.160278 683.982849,730.339600 
	C682.331177,730.416870 680.692993,730.805420 679.051025,731.066833 
	C672.643372,732.086853 672.643738,732.089050 671.396118,725.453186 
	C670.964233,725.513000 670.427307,725.430786 670.100647,725.655029 
	C652.160828,737.963623 632.785034,730.663269 627.036926,709.382446 
	C625.080444,702.138794 625.319153,694.979553 627.492798,687.743408 
	C632.714661,670.359924 655.089417,663.100952 667.651428,671.293152 
	C668.042603,671.548218 668.581116,671.577271 669.345520,671.795959 
	C671.472290,669.229126 670.440369,666.126770 670.743591,662.820007 
M666.297729,712.871338 
	C672.318115,708.154724 670.729370,701.453979 670.669983,695.284485 
	C670.604736,688.497925 664.067139,682.939331 657.244446,683.404480 
	C651.740967,683.779785 646.329346,688.286072 644.540833,693.982849 
	C642.510498,700.449768 644.738220,708.753967 649.549683,712.654053 
	C654.426147,716.607056 659.751526,716.831726 666.297729,712.871338 
z"/>
<path fill="#000000" opacity="1.000000" stroke="none" 
	d="
M303.918823,722.014832 
	C298.158447,713.478943 294.741211,704.693359 296.413757,694.492432 
	C299.374481,676.435181 315.861969,665.109314 333.751221,668.915833 
	C349.023193,672.165466 361.876953,687.584351 360.169922,701.992493 
	C358.483093,716.230164 349.892914,726.383850 336.796692,731.270752 
	C324.451233,735.877441 313.248383,731.787598 303.918823,722.014832 
M320.435059,713.119263 
	C323.294769,715.356750 326.476166,716.450134 330.156219,716.067871 
	C335.599548,715.502258 338.956848,712.428406 340.534760,707.377686 
	C342.504486,701.072693 342.746918,694.916016 337.913605,689.604309 
	C333.602997,684.867004 327.069916,683.057251 321.598358,685.580750 
	C316.373016,687.990662 314.635315,692.885742 314.298859,698.267578 
	C313.948639,703.869446 315.904968,708.675964 320.435059,713.119263 
z"/>
<path fill="#000000" opacity="1.000000" stroke="none" 
	d="
M810.062134,670.905762 
	C814.448853,668.016724 821.740723,668.091431 825.414734,670.711060 
	C827.941406,672.512573 827.990356,674.761230 826.720093,677.302490 
	C824.634827,681.473816 822.653381,685.699890 820.467651,689.817627 
	C813.435547,703.065552 809.177124,717.515930 802.520691,730.935852 
	C799.432983,737.161072 795.933350,742.889221 790.068542,746.850220 
	C783.758850,751.111633 776.943970,751.430664 770.013794,748.913330 
	C765.216370,747.170715 763.759155,743.232727 765.585449,738.378967 
	C767.622742,732.964417 769.441223,731.913879 775.061646,733.773193 
	C778.732483,734.987488 781.646240,734.111816 784.155090,731.584106 
	C786.685425,729.034790 785.802734,726.141907 784.627930,723.217651 
	C778.979004,709.157349 773.395752,695.070740 767.798157,680.989868 
	C767.182861,679.442139 766.517883,677.902466 766.058899,676.306396 
	C764.364441,670.414185 765.592590,668.748779 771.809204,668.689209 
	C784.728821,668.565491 782.591919,667.826233 786.448914,678.830444 
	C789.527466,687.613586 792.410156,696.465271 795.558594,705.817627 
	C798.763916,700.928833 800.892334,696.034058 802.649170,690.908447 
	C804.912781,684.304199 807.410767,677.780334 810.062134,670.905762 
z"/>
<path fill="#000000" opacity="1.000000" stroke="none" 
	d="
M559.645508,689.001099 
	C559.634155,683.508423 559.696350,678.514221 559.594849,673.523315 
	C559.535339,670.596619 560.978149,669.259216 563.709717,668.971924 
	C563.875122,668.954468 564.040955,668.940063 564.205750,668.917908 
	C576.328491,667.282898 577.354309,668.158142 577.375122,680.260498 
	C577.388306,687.916138 577.168823,695.578125 577.413757,703.225769 
	C577.733948,713.225586 584.434509,717.809143 593.067810,714.239258 
	C598.128662,712.146606 599.602173,707.929810 599.638916,702.957397 
	C599.704102,694.137024 599.624268,685.315369 599.704956,676.495239 
	C599.767761,669.634338 600.681641,668.794189 607.542908,668.691956 
	C618.326538,668.531189 618.308899,668.530762 618.100891,679.455627 
	C617.815857,694.432861 617.642334,709.416321 618.547363,724.373352 
	C618.753052,727.773193 617.763977,729.490051 614.516479,729.810303 
	C611.548035,730.103027 608.556824,730.157715 605.578979,730.365417 
	C601.671631,730.637939 603.394531,726.379028 601.344299,725.143555 
	C599.413696,724.896851 598.365723,726.423584 597.070068,727.364929 
	C584.436523,736.543640 568.527710,732.040649 562.467468,717.590332 
	C559.753418,711.118835 559.639343,704.324829 559.675354,697.489502 
	C559.689392,694.826721 559.659912,692.163757 559.645508,689.001099 
z"/>
<path fill="#000000" opacity="1.000000" stroke="none" 
	d="
M442.726013,686.989014 
	C443.658966,689.812195 445.930237,690.568665 448.127258,691.311829 
	C453.165039,693.015869 458.257324,694.559448 463.290588,696.276306 
	C469.769073,698.486023 475.281494,702.034363 476.077911,709.434326 
	C476.869904,716.793030 473.354584,722.709290 467.714935,727.160461 
	C456.852600,735.734131 434.405487,733.127075 425.474762,722.546570 
	C423.845703,720.616638 423.945618,719.282593 425.553711,717.414429 
	C431.073242,711.002625 431.765869,710.757690 439.433380,714.151184 
	C443.414062,715.912903 447.530151,717.208557 451.868042,717.592407 
	C454.729156,717.845581 457.618683,716.996826 458.262085,714.033997 
	C458.932343,710.947449 455.596954,710.497864 453.632111,709.822144 
	C448.619171,708.098389 443.347900,707.111511 438.366608,705.312988 
	C431.119781,702.696472 426.291504,697.807373 425.686005,689.662048 
	C425.058441,681.219666 428.803894,675.312866 436.174133,671.450806 
	C448.855194,664.805969 465.833679,667.162292 474.976776,677.033875 
	C472.636902,679.955200 470.275452,682.913330 467.902802,685.862366 
	C466.240387,687.928650 464.416138,687.072205 462.527802,686.205078 
	C458.412811,684.315552 454.185120,682.909424 449.540192,683.317078 
	C446.819885,683.555725 444.232727,683.963684 442.726013,686.989014 
z"/>
<path fill="#000000" opacity="1.000000" stroke="none" 
	d="
M364.908569,708.673157 
	C359.910522,693.027222 371.310760,675.744812 382.643768,670.809204 
	C396.545807,664.754578 412.746643,668.872925 422.062958,681.600952 
	C419.050720,684.719482 415.232971,687.112305 412.310822,690.459229 
	C411.029236,691.927063 409.572784,690.331848 408.466949,689.386597 
	C405.896912,687.189636 403.093964,685.649292 399.710205,684.893677 
	C394.405731,683.709045 389.824799,684.379761 386.101471,688.645447 
	C382.255249,693.052002 380.351807,697.762146 382.518707,703.723328 
	C386.296051,714.114807 397.104248,721.676819 408.356384,711.930664 
	C409.862122,710.626465 411.320740,709.840149 413.206085,711.349609 
	C416.169312,713.722168 419.210632,715.997253 422.220062,718.314514 
	C409.805237,733.889587 390.902557,736.133911 377.187683,727.416687 
	C370.373871,723.085999 367.656189,716.128845 364.908569,708.673157 
z"/>
<path fill="#000000" opacity="1.000000" stroke="none" 
	d="
M567.747986,537.570312 
	C545.761536,534.304138 533.943970,520.651550 531.047546,502.837097 
	C528.263062,485.711487 534.252686,470.487061 546.801758,457.932312 
	C558.971252,445.757355 573.310425,444.274170 588.802979,448.673187 
	C611.671875,455.166656 627.141724,480.845062 619.951599,503.176300 
	C612.732727,525.597107 593.788513,541.124207 567.747986,537.570312 
M551.305054,480.890930 
	C548.333191,485.730225 547.445435,491.020599 547.747559,496.619934 
	C548.547485,511.443359 563.867493,523.123291 579.813660,520.616638 
	C595.696228,518.120056 609.133423,501.699615 600.883789,485.371918 
	C598.173584,480.008026 594.812256,474.979187 590.364685,470.919922 
	C580.162659,461.608704 567.372070,462.338348 558.062134,472.589325 
	C555.828979,475.048279 553.815613,477.706940 551.305054,480.890930 
z"/>
<path fill="#000000" opacity="1.000000" stroke="none" 
	d="
M516.276611,319.019653 
	C529.308899,323.735016 535.704773,332.414062 535.363098,344.313446 
	C535.294434,346.704956 534.731140,348.930450 533.752869,351.043579 
	C531.374939,356.180573 529.294983,361.433472 527.732544,366.866577 
	C526.322144,371.771179 523.215454,374.833710 518.437439,376.399719 
	C509.699646,379.263641 496.814667,380.088348 490.935913,372.748688 
	C487.877136,368.929810 486.583160,365.620361 490.460724,361.938843 
	C493.332458,359.212280 491.264252,357.203064 489.849518,355.021393 
	C482.322083,343.413635 485.120819,329.740662 496.651276,322.405212 
	C502.538208,318.660034 509.096344,318.081360 516.276611,319.019653 
M502.913910,340.493927 
	C502.532684,341.588318 502.009277,342.655792 501.795837,343.781982 
	C501.034027,347.801270 504.330811,354.084930 507.498413,354.815338 
	C512.062622,355.867828 516.208740,353.239288 518.205322,348.027435 
	C519.899231,343.605652 518.585510,339.466034 514.778870,337.230469 
	C510.040924,334.447937 507.045624,335.131958 502.913910,340.493927 
z"/>
<path fill="#000000" opacity="1.000000" stroke="none" 
	d="
M575.722778,423.274750 
	C573.497070,424.477142 571.471375,424.297272 569.480957,424.298126 
	C535.830139,424.312378 502.179230,424.304901 468.528442,424.350525 
	C465.286011,424.354919 462.219421,424.178497 459.729095,421.718597 
	C457.250519,419.270233 455.220978,416.657654 456.556793,412.922791 
	C457.854156,409.295410 460.628418,407.276398 464.367065,406.781433 
	C466.499359,406.499146 468.691254,406.627319 470.856049,406.636353 
	C503.506012,406.772675 536.155945,406.918915 568.805908,407.069794 
	C569.803772,407.074432 570.804688,407.116150 571.798279,407.206390 
	C575.954834,407.583832 579.978088,408.509460 581.153748,413.193237 
	C582.291809,417.727264 579.771729,420.806213 575.722778,423.274750 
z"/>
<path fill="#000000" opacity="1.000000" stroke="none" 
	d="
M525.551208,458.308075 
	C507.771576,458.257385 490.444702,458.246033 473.118896,458.103882 
	C469.807495,458.076691 466.414886,457.894562 463.213409,457.135712 
	C459.415222,456.235413 456.546509,453.823761 456.553345,449.505310 
	C456.559937,445.327332 458.855530,442.593018 462.936096,441.694397 
	C465.189178,441.198212 467.571533,440.831299 469.853271,440.995300 
	C487.341217,442.252350 504.809387,441.492493 522.285339,440.776917 
	C528.588745,440.518799 534.903992,440.522614 542.456970,442.520416 
	C535.464233,445.882019 532.362976,451.511505 529.087219,457.008667 
	C528.413086,458.139862 527.191956,458.248322 525.551208,458.308075 
z"/>
<path fill="#000000" opacity="1.000000" stroke="none" 
	d="
M518.282104,487.995026 
	C517.919922,491.261749 516.435242,492.387665 513.520508,492.180695 
	C498.088287,491.084961 482.623566,491.524719 467.171631,491.326355 
	C461.166321,491.249329 456.027313,487.291565 455.945587,482.889008 
	C455.851776,477.835602 461.177521,473.379761 467.641785,473.920532 
	C483.252106,475.226440 498.875305,474.507202 514.488892,474.565277 
	C519.354431,474.583344 520.782837,476.077026 519.427002,480.693420 
	C518.779236,482.898712 518.671753,485.262634 518.282104,487.995026 
z"/>
<path fill="#000000" opacity="1.000000" stroke="none" 
	d="
M589.106079,485.957214 
	C591.493469,486.009369 593.833923,485.630646 594.623169,488.035065 
	C595.260376,489.976685 593.802002,491.524597 592.600769,492.880585 
	C590.835266,494.873474 588.926514,496.741089 587.052002,498.635529 
	C582.044312,503.696350 576.321716,505.948395 569.437988,502.731964 
	C561.801208,499.163635 557.601746,493.068420 555.774902,483.189789 
	C567.213623,488.347595 577.784180,491.330750 589.106079,485.957214 
z"/>
</svg>